<svg viewBox="0 0 32 32" class="r-1khnkhu r-4qtqp9 r-yyyyoo r-mabqd8 r-1dl2rms r-4wgw6l r-bnwqim r-1plcrui r-lrvibr r-1yvhtrz"><g><path fill-rule="evenodd" d="M16.2 2c.6 0 1 .4 1 1v1.6c2.1.2 3.8 1 5 2.2 1.4 1.4 2.2 3.3 2.8 5.3.3 1.2.6 2.5.9 3.8.2.9.4 1.8.6 2.6.6 2.2 1.2 4.2 2.3 6.1.2.3.2.7 0 1-.2.3-.5.5-.9.5h-6.8c-.5 2.3-2.5 3.9-5 3.9-2.4 0-4.5-1.7-5-3.9H4c-.4 0-.7-.2-.9-.5-.2-.3-.2-.7 0-1 1.1-1.8 1.8-3.9 2.3-6.1.2-.8.4-1.7.6-2.5.3-1.3.6-2.7 1-3.9.6-2 1.4-3.9 2.8-5.3 1.3-1.3 3-2.1 5.3-2.2V3c.1-.6.5-1 1.1-1zm-2.9 24.1c.4 1.1 1.5 1.9 2.9 1.9 1.3 0 2.4-.8 2.9-1.9h-5.8zm-7.6-2c.8-1.7 1.3-3.4 1.7-5.1l.6-2.7c.4-1.3.6-2.5 1-3.6.6-1.9 1.3-3.4 2.3-4.5 1-1 2.5-1.7 4.8-1.7s3.7.7 4.7 1.7 1.7 2.6 2.3 4.5c.3 1.1.6 2.3.9 3.5.2.9.4 1.8.7 2.8.4 1.7 1 3.4 1.8 5.1H5.7z" clip-rule="evenodd"></path></g></svg>